<?xml version="1.0" encoding="utf-8"?>
<!-- Generator: Adobe Adobe Illustrator 24.2.0, SVG Export Plug-In . SVG Version: 6.00 Build 0)  -->
<svg version="1.1" id="XMLID_1_" xmlns="http://www.w3.org/2000/svg" xmlns:xlink="http://www.w3.org/1999/xlink" x="0px" y="0px"
	 width="942.85px" height="686.34px" viewBox="0 0 942.85 686.34" style="enable-background:new 0 0 942.85 686.34;"
	 xml:space="preserve">
<style type="text/css">
	.st0{fill-rule:evenodd;clip-rule:evenodd;fill:url(#SVGID_1_);}
	.st1{fill:url(#SVGID_2_);}
	.st2{fill-rule:evenodd;clip-rule:evenodd;fill:url(#SVGID_3_);}
</style>
<g>
	<g>
		
			<linearGradient id="SVGID_1_" gradientUnits="userSpaceOnUse" x1="286.5171" y1="335.9167" x2="495.1229" y2="344.0849" gradientTransform="matrix(1 0 0 1 0.0442 0.0147)">
			<stop  offset="0" style="stop-color:#01E8FB"/>
			<stop  offset="1" style="stop-color:#B562D3"/>
		</linearGradient>
		<path class="st0" d="M573.06,454.51l37.89,21.88l45.63-26.34l0-106.88v-106.9l-50.94-29.41c0,71.41,0.81,142.45,0.81,214.26
			l-33.05,19.08l0.03,0.17l0.02,0.06l0.04,0.23l0.04,0.21l0.04,0.23l0.01,0.04l0.03,0.18l0.04,0.22l0.03,0.22l0.02,0.16l0.01,0.07
			l0.03,0.23l0.03,0.23l0.03,0.22l0.01,0.02l0.02,0.21l0.03,0.22l0.02,0.23l0.02,0.11v0.12l0.02,0.23l0.03,0.22l0.03,0.46l0.01,0.23
			l0.01,0.22l0.01,0.09l0.01,0.13l0.01,0.23l0.01,0.23l0.01,0.19v0.04v0.23l0.01,0.22v0.24v0.04v0.17v0.22l-0.01,0.23v0.15v0.06
			l-0.01,0.23l-0.01,0.23l-0.02,0.45l-0.01,0.22l-0.01,0.23l-0.01,0.13l-0.01,0.09l-0.01,0.23l-0.03,0.22l-0.01,0.22h-0.01
			l-0.02,0.23l-0.02,0.22l-0.03,0.23c-0.13,1.11-0.32,2.22-0.57,3.31l-0.05,0.23l-0.04,0.21L573.06,454.51L573.06,454.51z
			 M336.4,421.12v-38.18l-0.17-0.05l-0.06-0.02l-0.21-0.08l-0.21-0.08l-0.22-0.08l-0.03-0.01l-0.18-0.06l-0.21-0.08l-0.21-0.08
			l-0.13-0.04l-0.08-0.04l-0.21-0.08l-0.21-0.09l-0.21-0.08l-0.01-0.01l-0.19-0.09l-0.21-0.08l-0.21-0.1l-0.1-0.04l-0.11-0.04
			l-0.21-0.1l-0.2-0.1l-0.19-0.08l-0.02-0.01l-0.2-0.11l-0.2-0.09l-0.21-0.1l-0.07-0.04L331.8,381l-0.2-0.1l-0.2-0.1l-0.16-0.08
			l-0.04-0.03l-0.2-0.1l-0.19-0.11l-0.19-0.11l-0.05-0.03l-0.15-0.1l-0.19-0.1l-0.19-0.12l-0.19-0.12l-0.19-0.11l-0.19-0.12
			l-0.19-0.13l-0.02-0.01l-0.17-0.12l-0.19-0.11l-0.19-0.14l-0.1-0.06l-0.09-0.06l-0.19-0.12l-0.18-0.13l-0.18-0.12l-0.01-0.01
			l-0.18-0.12l-0.18-0.13l-0.19-0.14l-0.35-0.26l-0.18-0.14l-0.15-0.1l-0.03-0.03l-0.17-0.14l-0.17-0.14l-0.18-0.14l-0.04-0.04
			l-0.13-0.1l-0.17-0.14l-0.17-0.14l-0.12-0.1l-0.05-0.05l-0.17-0.14l-0.17-0.15l-0.16-0.14l-0.03-0.03l-0.14-0.12l-0.16-0.16
			l-0.17-0.15l-0.16-0.15l-0.16-0.15l-37.89,21.89l0,52.67l185.15,106.9l50.94-29.41C460.52,491.84,398.59,457.01,336.4,421.12
			L336.4,421.12z M471.42,187.26l33.05,19.09l0.17-0.15l0.17-0.15l0.17-0.15l0.17-0.14l0.04-0.03l0.14-0.12l0.17-0.15l0.17-0.14
			l0.12-0.09l0.06-0.05l0.18-0.14l0.17-0.13l0.19-0.14l0.01-0.01l0.17-0.13l0.18-0.14l0.18-0.13l0.19-0.12l0.18-0.14l0.18-0.12
			l0.18-0.12l0.01-0.01l0.19-0.13l0.19-0.12l0.18-0.12l0.08-0.04l0.12-0.08l0.19-0.12l0.19-0.12l0.16-0.1l0.03-0.01l0.2-0.11
			l0.19-0.13l0.19-0.11l0.04-0.03l0.14-0.08l0.2-0.1l0.2-0.12l0.19-0.1l0.2-0.12l0.2-0.1l0.2-0.1l0.03-0.01l0.17-0.09l0.2-0.1
			l0.4-0.2l0.21-0.1l0.41-0.18v-0.01c0.82-0.37,1.65-0.7,2.49-1.02l0.21-0.07l0.42-0.14l0.21-0.07l0.22-0.08l0.03-0.01l0.39-0.12
			l0.21-0.06l0.13-0.04l0.08-0.03l0.22-0.06v-43.77l-45.62-26.33l-92.58,53.45l-92.56,53.44v58.83
			C348.11,259.38,409.23,223.17,471.42,187.26z"/>
		
			<linearGradient id="SVGID_2_" gradientUnits="userSpaceOnUse" x1="286.2337" y1="341.6125" x2="591.675" y2="341.6125" gradientTransform="matrix(1 0 0 1 0.0442 0.0147)">
			<stop  offset="0" style="stop-color:#01E8FB"/>
			<stop  offset="1" style="stop-color:#B562D3"/>
		</linearGradient>
		<path class="st1" d="M356.45,409.55L356.45,409.55l56.58,32.67v-62.86c-3.58-1.12-6.2-4.48-6.2-8.44c0-4.88-1.64,66.31,3.25,66.31
			c4.87,0,13.08,0.87,13.08,5.76c0,3.96-1.25-64.75-4.85-63.63l-5.7,62.65l26.99,15.53l0-78.19c-3.6-1.12-6.2-4.48-6.2-8.44
			c0-4.88,3.96,85.18,8.84,85.18c4.89,0,8.84-90.06,8.84-85.18c0,3.96-2.62,7.31-6.2,8.44l-6.85,77.29l28.13,16.23l0-93.52
			c-3.6-1.12-6.2-4.48-6.2-8.44c0-4.88,1.36,99.81,6.24,99.81c4.88,0,15.15-102.93,11.44-99.81c-3.03,2.54-2.6,7.31-6.19,8.44
			l-6.05,93.07l76.21,44.01l50.13-28.94l-28.76-16.61c-1.51,1.31-3.17,2.49-4.96,3.54c-15.34,8.85-34.96,3.6-43.81-11.74
			c-8.85-15.34-3.6-34.96,11.74-43.8c12.35-7.12,27.44-5.11,37.49,3.93l22.98-13.27l0-65.33l-54.44,31.43
			c0.82,3.67-7.25,6.54-4.21,9.58c3.45,3.45,58.88-39.01,56.44-43.24c-2.44-4.23-69.66,25.77-65.27,27.93
			c6.45,3.17,7.63-1.4,10.4,1.16l57.07-25.46v-32.07l-67.71,39.09c0.82,3.67-2.71,5-4.21,9.58c-1.52,4.65,72.63-46.51,70.19-50.74
			c-2.44-4.23-85.9,35.7-79.02,35.44c3.96-0.15,7.64-1.4,10.4,1.14l70.36-33.37v-31.83l-81,46.76c0.82,3.67-3.54,6.15-4.21,9.58
			c-0.94,4.79,85.89-54.02,83.45-58.25c-2.44-4.22-96.18,40.01-92.28,42.95c5.78,4.35,7.64-1.4,10.41,1.15l83.63-40.03v-89.28
			L564,182.83l-27.73-16.02v33.21c1.89,0.66,3.75,1.5,5.55,2.54c15.34,8.86,20.6,28.47,11.74,43.81
			c-8.85,15.33-28.47,20.59-43.8,11.73c-12.34-7.12-18.15-21.2-15.34-34.42l-22.98-13.27l-56.58,32.66l54.44,31.44
			c2.77-2.55,6.98-3.14,10.41-1.15c4.23,2.44-59.84-31.86-62.28-27.64c-2.44,4.23,54.21,47.77,53.44,42.94
			c-0.45-2.83-5.03-5.91-4.21-9.58l-51.28-36.31l-27.08,15.65L456,297.51c2.77-2.55,6.97-3.13,10.41-1.15
			c4.22,2.44-76.59-39.67-79.03-35.45c-2.44,4.23,74.42,53.19,70.19,50.74c-3.42-1.98-5.03-5.92-4.2-9.58l-64.46-44.02l-27.18,15.68
			l81,46.77c2.77-2.56,7.98-3.63,11.41-1.65c4.23,2.44-88.6-47.17-91.03-42.94c-2.44,4.22,85.43,61.18,81.2,58.74
			c-3.43-1.98-5.03-5.92-4.21-9.59l-78.18-51.43l-75.63,43.66l0,57.89l28.76-16.6c-0.37-1.96-0.57-4-0.57-6.06
			c0-17.72,14.35-32.07,32.07-32.07c17.7,0,32.06,14.36,32.06,32.07c0,14.24-9.29,26.32-22.14,30.5V409.55z"/>
		
			<linearGradient id="SVGID_3_" gradientUnits="userSpaceOnUse" x1="331.0426" y1="338.4771" x2="557.3571" y2="338.4771" gradientTransform="matrix(1 0 0 1 0.0442 0.0147)">
			<stop  offset="0" style="stop-color:#01E8FB"/>
			<stop  offset="1" style="stop-color:#B562D3"/>
		</linearGradient>
		<path class="st2" d="M528.59,454.38c4.26,7.37,13.71,9.91,21.09,5.65c7.38-4.26,9.91-13.71,5.65-21.09
			c-4.26-7.38-13.71-9.9-21.09-5.65C526.87,437.54,524.34,447.01,528.59,454.38L528.59,454.38z M539.15,238.05
			c4.26-7.39,1.72-16.83-5.66-21.1c-7.37-4.25-16.83-1.72-21.08,5.66c-4.26,7.37-1.73,16.83,5.65,21.09
			C525.44,247.96,534.89,245.43,539.15,238.05L539.15,238.05z M346.53,337.07c-8.53,0-15.44,6.91-15.44,15.44
			c0,8.53,6.91,15.43,15.44,15.43c8.53,0,15.43-6.91,15.43-15.43C361.96,343.98,355.05,337.07,346.53,337.07z"/>
	</g>
</g>
</svg>
