<svg width="753" height="192" viewBox="0 0 753 192" fill="none" xmlns="http://www.w3.org/2000/svg">
<path d="M192.8 150V49.2H232.77C239.583 49.2 245.16 50.5767 249.5 53.33C253.887 56.0367 257.13 59.5133 259.23 63.76C261.377 68.0067 262.45 72.3933 262.45 76.92C262.45 82.4733 261.12 87.1867 258.46 91.06C255.847 94.9333 252.277 97.5467 247.75 98.9V95.4C254.097 96.8467 258.903 99.8567 262.17 104.43C265.483 109.003 267.14 114.207 267.14 120.04C267.14 126.013 265.997 131.24 263.71 135.72C261.423 140.2 258.017 143.7 253.49 146.22C249.01 148.74 243.457 150 236.83 150H192.8ZM209.88 134.11H234.73C237.67 134.11 240.307 133.527 242.64 132.36C244.973 131.147 246.793 129.467 248.1 127.32C249.453 125.127 250.13 122.537 250.13 119.55C250.13 116.843 249.547 114.417 248.38 112.27C247.213 110.123 245.51 108.42 243.27 107.16C241.03 105.853 238.347 105.2 235.22 105.2H209.88V134.11ZM209.88 89.45H232.56C234.987 89.45 237.157 88.9833 239.07 88.05C240.983 87.1167 242.5 85.74 243.62 83.92C244.74 82.1 245.3 79.86 245.3 77.2C245.3 73.7 244.18 70.7833 241.94 68.45C239.7 66.1167 236.573 64.95 232.56 64.95H209.88V89.45ZM282.52 150V47.1H299.39V150H282.52ZM353.749 152.1C346.189 152.1 339.585 150.397 333.939 146.99C328.292 143.583 323.905 138.893 320.779 132.92C317.699 126.9 316.159 119.993 316.159 112.2C316.159 104.267 317.745 97.3133 320.919 91.34C324.092 85.3667 328.502 80.7 334.149 77.34C339.795 73.98 346.329 72.3 353.749 72.3C361.355 72.3 367.982 74.0033 373.629 77.41C379.275 80.8167 383.662 85.53 386.789 91.55C389.915 97.5233 391.479 104.407 391.479 112.2C391.479 120.04 389.892 126.97 386.719 132.99C383.592 138.963 379.205 143.653 373.559 147.06C367.912 150.42 361.309 152.1 353.749 152.1ZM353.749 136.28C360.469 136.28 365.462 134.04 368.729 129.56C371.995 125.08 373.629 119.293 373.629 112.2C373.629 104.873 371.972 99.04 368.659 94.7C365.345 90.3133 360.375 88.12 353.749 88.12C349.222 88.12 345.489 89.1467 342.549 91.2C339.655 93.2067 337.509 96.03 336.109 99.67C334.709 103.263 334.009 107.44 334.009 112.2C334.009 119.527 335.665 125.383 338.979 129.77C342.339 134.11 347.262 136.28 353.749 136.28ZM439.732 152.1C431.938 152.1 425.288 150.373 419.782 146.92C414.275 143.42 410.052 138.66 407.112 132.64C404.218 126.62 402.748 119.807 402.702 112.2C402.748 104.453 404.265 97.5933 407.252 91.62C410.285 85.6 414.578 80.8867 420.132 77.48C425.685 74.0267 432.288 72.3 439.942 72.3C448.528 72.3 455.785 74.47 461.712 78.81C467.685 83.1033 471.582 88.9833 473.402 96.45L456.602 101C455.295 96.94 453.125 93.79 450.092 91.55C447.058 89.2633 443.605 88.12 439.732 88.12C435.345 88.12 431.728 89.17 428.882 91.27C426.035 93.3233 423.935 96.17 422.582 99.81C421.228 103.45 420.552 107.58 420.552 112.2C420.552 119.387 422.162 125.197 425.382 129.63C428.602 134.063 433.385 136.28 439.732 136.28C444.212 136.28 447.735 135.253 450.302 133.2C452.915 131.147 454.875 128.183 456.182 124.31L473.402 128.16C471.068 135.86 466.985 141.787 461.152 145.94C455.318 150.047 448.178 152.1 439.732 152.1Z" fill="white"/>
<path d="M487.429 150V49.2H504.299V91.62H552.039V49.2H568.839V150H552.039V107.44H504.299V150H487.429ZM616.814 152.17C611.214 152.17 606.594 151.237 602.954 149.37C599.314 147.503 596.421 145.123 594.274 142.23C592.127 139.337 590.541 136.257 589.514 132.99C588.487 129.723 587.811 126.643 587.484 123.75C587.204 120.81 587.064 118.43 587.064 116.61V74.4H604.144V110.8C604.144 113.133 604.307 115.77 604.634 118.71C604.961 121.603 605.707 124.403 606.874 127.11C608.087 129.77 609.861 131.963 612.194 133.69C614.574 135.417 617.771 136.28 621.784 136.28C623.931 136.28 626.054 135.93 628.154 135.23C630.254 134.53 632.144 133.34 633.824 131.66C635.551 129.933 636.927 127.577 637.954 124.59C638.981 121.603 639.494 117.823 639.494 113.25L649.504 117.52C649.504 123.96 648.244 129.793 645.724 135.02C643.251 140.247 639.587 144.423 634.734 147.55C629.881 150.63 623.907 152.17 616.814 152.17ZM641.524 150V126.55H639.494V74.4H656.434V150H641.524ZM712.431 152.1C705.057 152.1 698.874 150.35 693.881 146.85C688.887 143.35 685.131 138.59 682.611 132.57C680.091 126.503 678.831 119.713 678.831 112.2C678.831 104.593 680.091 97.78 682.611 91.76C685.131 85.74 688.817 81.0033 693.671 77.55C698.571 74.05 704.614 72.3 711.801 72.3C718.941 72.3 725.124 74.05 730.351 77.55C735.624 81.0033 739.707 85.74 742.601 91.76C745.494 97.7333 746.941 104.547 746.941 112.2C746.941 119.76 745.517 126.55 742.671 132.57C739.824 138.59 735.811 143.35 730.631 146.85C725.451 150.35 719.384 152.1 712.431 152.1ZM675.961 150V49.2H692.971V96.94H690.871V150H675.961ZM709.841 136.98C714.227 136.98 717.844 135.883 720.691 133.69C723.537 131.497 725.637 128.533 726.991 124.8C728.391 121.02 729.091 116.82 729.091 112.2C729.091 107.627 728.391 103.473 726.991 99.74C725.591 95.96 723.421 92.9733 720.481 90.78C717.541 88.54 713.807 87.42 709.281 87.42C704.987 87.42 701.487 88.47 698.781 90.57C696.074 92.6233 694.067 95.5167 692.761 99.25C691.501 102.937 690.871 107.253 690.871 112.2C690.871 117.1 691.501 121.417 692.761 125.15C694.067 128.883 696.097 131.8 698.851 133.9C701.651 135.953 705.314 136.98 709.841 136.98Z" fill="#9E00FF" fill-opacity="0.75"/>
<circle cx="82" cy="96" r="82" fill="#9E00FF"/>
<path d="M42.5087 149.37L49.9287 122.07H24.5187L28.7187 106.18H54.1287L58.4687 89.73H33.0587L37.3987 73.91H62.7387L69.5287 48.71H85.9787L79.1187 73.91H96.3387L103.129 48.71H119.579L112.719 73.91H138.129L133.859 89.73H108.519L104.039 106.18H129.449L125.179 122.07H99.8387L92.5587 149.37H76.1087L83.3887 122.07H66.2387L58.9587 149.37H42.5087ZM70.5787 106.18H87.6587L92.0687 89.73H74.9187L70.5787 106.18Z" fill="white"/>
</svg>
