<svg xmlns="http://www.w3.org/2000/svg" xmlns:xlink="http://www.w3.org/1999/xlink" width="1080" zoomAndPan="magnify" viewBox="0 0 810 809.999993" height="1080" preserveAspectRatio="xMidYMid meet" version="1.0"><defs><clipPath id="ef9015ef05"><path d="M 40.5 71 L 769.5 71 L 769.5 217 L 40.5 217 Z M 40.5 71 " clip-rule="nonzero"/></clipPath><clipPath id="0d3c7d9380"><path d="M 40.5 248 L 769.5 248 L 769.5 810 L 40.5 810 Z M 40.5 248 " clip-rule="nonzero"/></clipPath></defs><path fill="#000000" d="M 182.722656 143.835938 C 170.574219 143.835938 160.453125 133.882812 160.453125 121.566406 L 160.453125 22.363281 C 160.453125 10.046875 170.574219 0.09375 182.722656 0.09375 C 194.871094 0.09375 204.992188 10.046875 204.992188 22.363281 L 204.992188 121.566406 C 204.992188 133.882812 195.039062 143.835938 182.722656 143.835938 Z M 182.722656 143.835938 " fill-opacity="1" fill-rule="nonzero"/><g clip-path="url(#ef9015ef05)"><path fill="#000000" d="M 696.449219 71.964844 L 677.722656 71.964844 L 677.722656 121.566406 C 677.722656 149.402344 655.113281 172.011719 627.277344 172.011719 C 599.4375 172.011719 576.832031 149.402344 576.832031 121.566406 L 576.832031 71.964844 L 233.167969 71.964844 L 233.167969 121.566406 C 233.167969 149.402344 210.5625 172.011719 182.722656 172.011719 C 154.886719 172.011719 132.277344 149.402344 132.277344 121.566406 L 132.277344 71.964844 L 113.550781 71.964844 C 73.398438 71.964844 40.5 104.863281 40.5 145.015625 L 40.5 216.210938 L 769.5 216.210938 L 769.5 145.015625 C 769.5 104.863281 736.601562 71.964844 696.449219 71.964844 Z M 696.449219 71.964844 " fill-opacity="1" fill-rule="nonzero"/></g><path fill="#000000" d="M 627.277344 143.835938 C 615.128906 143.835938 605.007812 133.882812 605.007812 121.566406 L 605.007812 22.363281 C 605.007812 10.214844 614.960938 0.09375 627.277344 0.09375 C 639.425781 0.09375 649.546875 10.046875 649.546875 22.363281 L 649.546875 121.566406 C 649.546875 133.882812 639.59375 143.835938 627.277344 143.835938 Z M 627.277344 143.835938 " fill-opacity="1" fill-rule="nonzero"/><g clip-path="url(#0d3c7d9380)"><path fill="#000000" d="M 40.5 248.265625 L 40.5 736.6875 C 40.5 777.007812 73.398438 809.90625 113.550781 809.90625 L 696.449219 809.90625 C 736.601562 809.90625 769.5 777.007812 769.5 736.855469 L 769.5 248.265625 Z M 248.6875 704.800781 L 146.449219 704.800781 L 146.449219 609.984375 L 248.6875 609.984375 Z M 248.6875 574.046875 L 146.449219 574.046875 L 146.449219 479.234375 L 248.6875 479.234375 Z M 248.6875 443.128906 L 146.449219 443.128906 L 146.449219 348.3125 L 248.6875 348.3125 Z M 387.03125 704.800781 L 284.792969 704.800781 L 284.792969 609.984375 L 387.03125 609.984375 Z M 387.03125 574.046875 L 284.792969 574.046875 L 284.792969 479.234375 L 387.03125 479.234375 Z M 387.03125 443.128906 L 284.792969 443.128906 L 284.792969 348.3125 L 387.03125 348.3125 Z M 525.375 704.800781 L 423.136719 704.800781 L 423.136719 609.984375 L 525.375 609.984375 Z M 525.375 574.046875 L 423.136719 574.046875 L 423.136719 479.234375 L 525.375 479.234375 Z M 525.375 443.128906 L 423.136719 443.128906 L 423.136719 348.3125 L 525.375 348.3125 Z M 663.71875 704.800781 L 561.480469 704.800781 L 561.480469 609.984375 L 663.71875 609.984375 Z M 663.71875 574.046875 L 561.480469 574.046875 L 561.480469 479.234375 L 663.71875 479.234375 Z M 663.71875 443.128906 L 561.480469 443.128906 L 561.480469 348.3125 L 663.71875 348.3125 Z M 663.71875 443.128906 " fill-opacity="1" fill-rule="nonzero"/></g></svg>