<?xml version="1.0" encoding="utf-8"?>
<!-- Generator: Adobe Illustrator 27.8.0, SVG Export Plug-In . SVG Version: 6.00 Build 0)  -->
<svg version="1.1" id="Layer_1" xmlns="http://www.w3.org/2000/svg" xmlns:xlink="http://www.w3.org/1999/xlink" x="0px" y="0px"
	 viewBox="0 0 1494.5 360.9" style="enable-background:new 0 0 1494.5 360.9;" xml:space="preserve">
<style type="text/css">
	.st0{fill:url(#SVGID_1_);}
	.st1{fill:url(#SVGID_00000103986760875080652050000007610574580034058910_);}
	.st2{fill:url(#SVGID_00000012442153932773259460000008973694386282149507_);}
	.st3{fill:url(#SVGID_00000063597947135830325570000016572134148447529907_);}
	.st4{fill:url(#SVGID_00000031186217316576636160000012908084621121057160_);}
	.st5{fill:url(#SVGID_00000161614081196163687460000005233370289418145665_);}
	.st6{fill:url(#SVGID_00000018923853244449364850000012482248393040341121_);}
	.st7{fill:#FFFFFF;}
</style>
<g>
	<g>
		<path d="M679.3,257.7l-23.6,89.4h-13.3l-16.3-56.9c-0.4-1.5-0.9-3.1-1.3-4.9c-0.4-1.8-0.9-3.5-1.3-5.2c-0.4-1.7-0.8-3.3-1.1-4.7
			c-0.3-1.4-0.5-2.4-0.6-3.2c-0.1,0.7-0.3,1.8-0.5,3.1c-0.3,1.4-0.6,2.9-0.9,4.6c-0.4,1.7-0.8,3.5-1.2,5.2c-0.4,1.8-0.9,3.5-1.3,5
			l-16,56.8h-13.2l-23.5-89.4h12.8l13.6,54.2c0.4,1.8,0.9,3.6,1.3,5.5c0.4,1.9,0.8,3.7,1.2,5.6c0.4,1.9,0.7,3.6,1,5.4
			c0.3,1.7,0.6,3.4,0.8,4.9c0.2-1.6,0.5-3.3,0.8-5.1c0.3-1.8,0.7-3.7,1.1-5.5c0.4-1.9,0.8-3.7,1.3-5.6c0.4-1.8,0.9-3.6,1.4-5.3
			l15.3-54.1h12.5l15.8,54.4c0.5,1.7,1,3.5,1.4,5.4c0.5,1.9,0.9,3.8,1.3,5.6c0.4,1.9,0.7,3.7,1,5.4c0.3,1.7,0.6,3.3,0.8,4.8
			c0.3-2,0.6-4.2,1.1-6.6c0.4-2.4,0.9-4.8,1.5-7.3c0.6-2.5,1.1-5,1.7-7.5l13.6-54.2H679.3z"/>
		<path d="M752.2,347.1H702v-89.4h50.2v10.8h-37.7v26.6H750v10.6h-35.4v30.6h37.7V347.1z"/>
		<path d="M781.1,257.7h25.9c11.4,0,19.9,1.7,25.7,5c5.7,3.3,8.6,9.1,8.6,17.2c0,3.5-0.6,6.6-1.9,9.3s-3.1,5-5.5,6.8
			c-2.4,1.8-5.4,3-8.9,3.7v0.6c3.7,0.6,6.9,1.7,9.8,3.3c2.9,1.6,5.1,3.8,6.8,6.8c1.7,2.9,2.5,6.7,2.5,11.2c0,5.5-1.3,10.1-3.9,13.9
			c-2.6,3.8-6.2,6.7-10.9,8.7c-4.7,2-10.3,3-16.8,3h-31.4V257.7z M793.7,295.3h15.6c7.2,0,12.2-1.2,15-3.5c2.8-2.4,4.2-5.8,4.2-10.3
			c0-4.7-1.7-8.1-5-10.1c-3.3-2.1-8.5-3.1-15.7-3.1h-14.1V295.3z M793.7,305.7v30.9h17.1c7.4,0,12.6-1.4,15.6-4.3s4.6-6.8,4.6-11.7
			c0-3.1-0.7-5.8-2-8c-1.4-2.2-3.6-3.9-6.6-5.1c-3.1-1.2-7.2-1.8-12.4-1.8H793.7z"/>
		<path d="M954.9,278.3c0,4-0.8,7.5-2.4,10.5s-3.8,5.4-6.6,7.2c-2.8,1.9-6.1,3.2-9.8,4v0.4c7.1,0.9,12.4,3.2,16.1,6.8
			c3.6,3.6,5.4,8.4,5.4,14.4c0,5.2-1.2,9.8-3.7,13.8c-2.4,4-6.2,7.2-11.3,9.5c-5.1,2.3-11.6,3.4-19.5,3.4c-4.8,0-9.2-0.4-13.3-1.2
			c-4.1-0.8-8-2-11.6-3.7v-11.2c3.7,1.9,7.7,3.3,12,4.4c4.3,1,8.5,1.6,12.5,1.6c7.8,0,13.4-1.5,16.8-4.5c3.4-3,5.1-7.2,5.1-12.5
			c0-3.5-0.9-6.4-2.8-8.6c-1.8-2.2-4.6-3.9-8.2-4.9c-3.6-1.1-8.1-1.6-13.5-1.6h-8.4v-10.2h8.5c5,0,9.1-0.7,12.4-2
			c3.2-1.3,5.7-3.2,7.2-5.6c1.6-2.4,2.4-5.2,2.4-8.4c0-4.2-1.4-7.5-4.1-9.8c-2.8-2.3-6.6-3.5-11.6-3.5c-3.1,0-5.9,0.3-8.5,1
			c-2.5,0.7-4.9,1.6-7.1,2.7c-2.2,1.1-4.3,2.3-6.3,3.7l-6.1-8.5c3.3-2.5,7.3-4.7,12-6.5c4.7-1.8,10.1-2.7,16.2-2.7
			c9.2,0,16.1,2,20.9,6.1C952.5,266.5,954.9,271.8,954.9,278.3z"/>
		<path d="M973.1,340.1c0-3.1,0.8-5.3,2.4-6.6c1.6-1.3,3.5-1.9,5.7-1.9c2.3,0,4.2,0.6,5.8,1.9s2.4,3.5,2.4,6.6c0,3-0.8,5.2-2.4,6.6
			c-1.6,1.4-3.5,2.1-5.8,2.1c-2.2,0-4.1-0.7-5.7-2.1C973.9,345.4,973.1,343.2,973.1,340.1z"/>
		<path d="M1063.7,302.3c0,7.3-0.5,13.7-1.7,19.4c-1.1,5.7-2.8,10.5-5.2,14.5c-2.4,4-5.5,7-9.3,9c-3.8,2.1-8.4,3.1-13.8,3.1
			c-6.8,0-12.4-1.8-16.8-5.4c-4.4-3.6-7.7-8.9-9.8-15.7c-2.2-6.9-3.2-15.2-3.2-24.9c0-9.5,1-17.7,2.9-24.6c2-6.9,5.1-12.1,9.5-15.8
			c4.4-3.7,10.2-5.5,17.4-5.5c6.8,0,12.5,1.8,16.9,5.5c4.4,3.6,7.7,8.9,9.8,15.8C1062.6,284.4,1063.7,292.7,1063.7,302.3z
			 M1016.3,302.3c0,8,0.6,14.6,1.7,19.9c1.1,5.3,3,9.3,5.6,11.9c2.6,2.6,6,3.9,10.2,3.9s7.7-1.3,10.2-3.9c2.6-2.6,4.5-6.6,5.6-11.9
			c1.1-5.3,1.7-11.9,1.7-19.9c0-7.8-0.6-14.4-1.7-19.7c-1.1-5.3-3-9.3-5.5-11.9c-2.5-2.7-6-4-10.3-4s-7.8,1.3-10.3,4
			c-2.5,2.7-4.4,6.6-5.5,11.9C1016.8,287.9,1016.3,294.5,1016.3,302.3z"/>
	</g>
	<g>
		<linearGradient id="SVGID_1_" gradientUnits="userSpaceOnUse" x1="733.6489" y1="430.8818" x2="886.2774" y2="166.5213">
			<stop  offset="1.202108e-02" style="stop-color:#FA522B"/>
			<stop  offset="0.1556" style="stop-color:#F81F49"/>
			<stop  offset="0.167" style="stop-color:#EF1E55"/>
			<stop  offset="0.2066" style="stop-color:#D31C7A"/>
			<stop  offset="0.2464" style="stop-color:#BE1B97"/>
			<stop  offset="0.2857" style="stop-color:#AE1AAB"/>
			<stop  offset="0.3246" style="stop-color:#A519B8"/>
			<stop  offset="0.3622" style="stop-color:#A219BC"/>
			<stop  offset="0.4511" style="stop-color:#9622C2"/>
			<stop  offset="1" style="stop-color:#4C59E3"/>
		</linearGradient>
		<path class="st0" d="M679.3,257.7l-23.6,89.4h-13.3l-16.3-56.9c-0.4-1.5-0.9-3.1-1.3-4.9c-0.4-1.8-0.9-3.5-1.3-5.2
			c-0.4-1.7-0.8-3.3-1.1-4.7c-0.3-1.4-0.5-2.4-0.6-3.2c-0.1,0.7-0.3,1.8-0.5,3.1c-0.3,1.4-0.6,2.9-0.9,4.6c-0.4,1.7-0.8,3.5-1.2,5.2
			c-0.4,1.8-0.9,3.5-1.3,5l-16,56.8h-13.2l-23.5-89.4h12.8l13.6,54.2c0.4,1.8,0.9,3.6,1.3,5.5c0.4,1.9,0.8,3.7,1.2,5.6
			c0.4,1.9,0.7,3.6,1,5.4c0.3,1.7,0.6,3.4,0.8,4.9c0.2-1.6,0.5-3.3,0.8-5.1c0.3-1.8,0.7-3.7,1.1-5.5c0.4-1.9,0.8-3.7,1.3-5.6
			c0.4-1.8,0.9-3.6,1.4-5.3l15.3-54.1h12.5l15.8,54.4c0.5,1.7,1,3.5,1.4,5.4c0.5,1.9,0.9,3.8,1.3,5.6c0.4,1.9,0.7,3.7,1,5.4
			c0.3,1.7,0.6,3.3,0.8,4.8c0.3-2,0.6-4.2,1.1-6.6c0.4-2.4,0.9-4.8,1.5-7.3c0.6-2.5,1.1-5,1.7-7.5l13.6-54.2H679.3z"/>
		
			<linearGradient id="SVGID_00000165923207575779480570000017181452113746372256_" gradientUnits="userSpaceOnUse" x1="733.6489" y1="430.8818" x2="886.2774" y2="166.5213">
			<stop  offset="1.202108e-02" style="stop-color:#FA522B"/>
			<stop  offset="0.1556" style="stop-color:#F81F49"/>
			<stop  offset="0.167" style="stop-color:#EF1E55"/>
			<stop  offset="0.2066" style="stop-color:#D31C7A"/>
			<stop  offset="0.2464" style="stop-color:#BE1B97"/>
			<stop  offset="0.2857" style="stop-color:#AE1AAB"/>
			<stop  offset="0.3246" style="stop-color:#A519B8"/>
			<stop  offset="0.3622" style="stop-color:#A219BC"/>
			<stop  offset="0.4511" style="stop-color:#9622C2"/>
			<stop  offset="1" style="stop-color:#4C59E3"/>
		</linearGradient>
		<path style="fill:url(#SVGID_00000165923207575779480570000017181452113746372256_);" d="M752.2,347.1H702v-89.4h50.2v10.8h-37.7
			v26.6H750v10.6h-35.4v30.6h37.7V347.1z"/>
		
			<linearGradient id="SVGID_00000058556102578438394020000003289970139383915933_" gradientUnits="userSpaceOnUse" x1="733.6489" y1="430.8818" x2="886.2774" y2="166.5213">
			<stop  offset="1.202108e-02" style="stop-color:#FA522B"/>
			<stop  offset="0.1556" style="stop-color:#F81F49"/>
			<stop  offset="0.167" style="stop-color:#EF1E55"/>
			<stop  offset="0.2066" style="stop-color:#D31C7A"/>
			<stop  offset="0.2464" style="stop-color:#BE1B97"/>
			<stop  offset="0.2857" style="stop-color:#AE1AAB"/>
			<stop  offset="0.3246" style="stop-color:#A519B8"/>
			<stop  offset="0.3622" style="stop-color:#A219BC"/>
			<stop  offset="0.4511" style="stop-color:#9622C2"/>
			<stop  offset="1" style="stop-color:#4C59E3"/>
		</linearGradient>
		<path style="fill:url(#SVGID_00000058556102578438394020000003289970139383915933_);" d="M781.1,257.7h25.9
			c11.4,0,19.9,1.7,25.7,5c5.7,3.3,8.6,9.1,8.6,17.2c0,3.5-0.6,6.6-1.9,9.3s-3.1,5-5.5,6.8c-2.4,1.8-5.4,3-8.9,3.7v0.6
			c3.7,0.6,6.9,1.7,9.8,3.3c2.9,1.6,5.1,3.8,6.8,6.8c1.7,2.9,2.5,6.7,2.5,11.2c0,5.5-1.3,10.1-3.9,13.9c-2.6,3.8-6.2,6.7-10.9,8.7
			c-4.7,2-10.3,3-16.8,3h-31.4V257.7z M793.7,295.3h15.6c7.2,0,12.2-1.2,15-3.5c2.8-2.4,4.2-5.8,4.2-10.3c0-4.7-1.7-8.1-5-10.1
			c-3.3-2.1-8.5-3.1-15.7-3.1h-14.1V295.3z M793.7,305.7v30.9h17.1c7.4,0,12.6-1.4,15.6-4.3s4.6-6.8,4.6-11.7c0-3.1-0.7-5.8-2-8
			c-1.4-2.2-3.6-3.9-6.6-5.1c-3.1-1.2-7.2-1.8-12.4-1.8H793.7z"/>
		
			<linearGradient id="SVGID_00000122702524910678388500000000856769735175649469_" gradientUnits="userSpaceOnUse" x1="733.6489" y1="430.8818" x2="886.2774" y2="166.5213">
			<stop  offset="1.202108e-02" style="stop-color:#FA522B"/>
			<stop  offset="0.1556" style="stop-color:#F81F49"/>
			<stop  offset="0.167" style="stop-color:#EF1E55"/>
			<stop  offset="0.2066" style="stop-color:#D31C7A"/>
			<stop  offset="0.2464" style="stop-color:#BE1B97"/>
			<stop  offset="0.2857" style="stop-color:#AE1AAB"/>
			<stop  offset="0.3246" style="stop-color:#A519B8"/>
			<stop  offset="0.3622" style="stop-color:#A219BC"/>
			<stop  offset="0.4511" style="stop-color:#9622C2"/>
			<stop  offset="1" style="stop-color:#4C59E3"/>
		</linearGradient>
		<path style="fill:url(#SVGID_00000122702524910678388500000000856769735175649469_);" d="M954.9,278.3c0,4-0.8,7.5-2.4,10.5
			s-3.8,5.4-6.6,7.2c-2.8,1.9-6.1,3.2-9.8,4v0.4c7.1,0.9,12.4,3.2,16.1,6.8c3.6,3.6,5.4,8.4,5.4,14.4c0,5.2-1.2,9.8-3.7,13.8
			c-2.4,4-6.2,7.2-11.3,9.5c-5.1,2.3-11.6,3.4-19.5,3.4c-4.8,0-9.2-0.4-13.3-1.2c-4.1-0.8-8-2-11.6-3.7v-11.2
			c3.7,1.9,7.7,3.3,12,4.4c4.3,1,8.5,1.6,12.5,1.6c7.8,0,13.4-1.5,16.8-4.5c3.4-3,5.1-7.2,5.1-12.5c0-3.5-0.9-6.4-2.8-8.6
			c-1.8-2.2-4.6-3.9-8.2-4.9c-3.6-1.1-8.1-1.6-13.5-1.6h-8.4v-10.2h8.5c5,0,9.1-0.7,12.4-2c3.2-1.3,5.7-3.2,7.2-5.6
			c1.6-2.4,2.4-5.2,2.4-8.4c0-4.2-1.4-7.5-4.1-9.8c-2.8-2.3-6.6-3.5-11.6-3.5c-3.1,0-5.9,0.3-8.5,1c-2.5,0.7-4.9,1.6-7.1,2.7
			c-2.2,1.1-4.3,2.3-6.3,3.7l-6.1-8.5c3.3-2.5,7.3-4.7,12-6.5c4.7-1.8,10.1-2.7,16.2-2.7c9.2,0,16.1,2,20.9,6.1
			C952.5,266.5,954.9,271.8,954.9,278.3z"/>
		
			<linearGradient id="SVGID_00000055675342342228134680000010916691831260255395_" gradientUnits="userSpaceOnUse" x1="733.6489" y1="430.8818" x2="886.2774" y2="166.5213">
			<stop  offset="1.202108e-02" style="stop-color:#FA522B"/>
			<stop  offset="0.1556" style="stop-color:#F81F49"/>
			<stop  offset="0.167" style="stop-color:#EF1E55"/>
			<stop  offset="0.2066" style="stop-color:#D31C7A"/>
			<stop  offset="0.2464" style="stop-color:#BE1B97"/>
			<stop  offset="0.2857" style="stop-color:#AE1AAB"/>
			<stop  offset="0.3246" style="stop-color:#A519B8"/>
			<stop  offset="0.3622" style="stop-color:#A219BC"/>
			<stop  offset="0.4511" style="stop-color:#9622C2"/>
			<stop  offset="1" style="stop-color:#4C59E3"/>
		</linearGradient>
		<path style="fill:url(#SVGID_00000055675342342228134680000010916691831260255395_);" d="M973.1,340.1c0-3.1,0.8-5.3,2.4-6.6
			c1.6-1.3,3.5-1.9,5.7-1.9c2.3,0,4.2,0.6,5.8,1.9s2.4,3.5,2.4,6.6c0,3-0.8,5.2-2.4,6.6c-1.6,1.4-3.5,2.1-5.8,2.1
			c-2.2,0-4.1-0.7-5.7-2.1C973.9,345.4,973.1,343.2,973.1,340.1z"/>
		
			<linearGradient id="SVGID_00000178891907580362837450000003500707028466555808_" gradientUnits="userSpaceOnUse" x1="733.6489" y1="430.8818" x2="886.2774" y2="166.5213">
			<stop  offset="1.202108e-02" style="stop-color:#FA522B"/>
			<stop  offset="0.1556" style="stop-color:#F81F49"/>
			<stop  offset="0.167" style="stop-color:#EF1E55"/>
			<stop  offset="0.2066" style="stop-color:#D31C7A"/>
			<stop  offset="0.2464" style="stop-color:#BE1B97"/>
			<stop  offset="0.2857" style="stop-color:#AE1AAB"/>
			<stop  offset="0.3246" style="stop-color:#A519B8"/>
			<stop  offset="0.3622" style="stop-color:#A219BC"/>
			<stop  offset="0.4511" style="stop-color:#9622C2"/>
			<stop  offset="1" style="stop-color:#4C59E3"/>
		</linearGradient>
		<path style="fill:url(#SVGID_00000178891907580362837450000003500707028466555808_);" d="M1063.7,302.3c0,7.3-0.5,13.7-1.7,19.4
			c-1.1,5.7-2.8,10.5-5.2,14.5c-2.4,4-5.5,7-9.3,9c-3.8,2.1-8.4,3.1-13.8,3.1c-6.8,0-12.4-1.8-16.8-5.4c-4.4-3.6-7.7-8.9-9.8-15.7
			c-2.2-6.9-3.2-15.2-3.2-24.9c0-9.5,1-17.7,2.9-24.6c2-6.9,5.1-12.1,9.5-15.8c4.4-3.7,10.2-5.5,17.4-5.5c6.8,0,12.5,1.8,16.9,5.5
			c4.4,3.6,7.7,8.9,9.8,15.8C1062.6,284.4,1063.7,292.7,1063.7,302.3z M1016.3,302.3c0,8,0.6,14.6,1.7,19.9c1.1,5.3,3,9.3,5.6,11.9
			c2.6,2.6,6,3.9,10.2,3.9s7.7-1.3,10.2-3.9c2.6-2.6,4.5-6.6,5.6-11.9c1.1-5.3,1.7-11.9,1.7-19.9c0-7.8-0.6-14.4-1.7-19.7
			c-1.1-5.3-3-9.3-5.5-11.9c-2.5-2.7-6-4-10.3-4s-7.8,1.3-10.3,4c-2.5,2.7-4.4,6.6-5.5,11.9C1016.8,287.9,1016.3,294.5,1016.3,302.3
			z"/>
	</g>
</g>
<linearGradient id="SVGID_00000003797612771463946070000016950423486165160610_" gradientUnits="userSpaceOnUse" x1="152.8889" y1="355.1197" x2="356.5851" y2="2.3076">
	<stop  offset="0.1711" style="stop-color:#4C59E3"/>
	<stop  offset="0.1822" style="stop-color:#5453DF"/>
	<stop  offset="0.2289" style="stop-color:#703ED3"/>
	<stop  offset="0.2791" style="stop-color:#862EC9"/>
	<stop  offset="0.3338" style="stop-color:#9622C1"/>
	<stop  offset="0.3965" style="stop-color:#9F1BBD"/>
	<stop  offset="0.4846" style="stop-color:#A219BC"/>
	<stop  offset="0.6021" style="stop-color:#C11B93"/>
	<stop  offset="0.8201" style="stop-color:#F81F49"/>
	<stop  offset="0.8472" style="stop-color:#F92D41"/>
	<stop  offset="0.899" style="stop-color:#F94135"/>
	<stop  offset="0.9503" style="stop-color:#FA4E2D"/>
	<stop  offset="1" style="stop-color:#FA522B"/>
</linearGradient>
<path style="fill:url(#SVGID_00000003797612771463946070000016950423486165160610_);" d="M496.4,178.7
	C496.5,178.7,496.5,178.7,496.4,178.7C496.4,178.7,496.4,178.7,496.4,178.7c-1.9,0.4-13.1,2.9-19.8,5.7c-7.7,4.2-14,10.1-18.1,18.1
	c-0.2,0.4-0.7,1.1-1.3,1.8c-0.4,0.8-0.8,1.6-1.2,2.4c-5.4,11.3-11,22.5-16.5,33.7c-7.5,15.4-15.1,30.9-22.6,46.3
	c-5.9,12.1-11.4,24.4-17.8,36.2c-6.2,11.4-15.9,18.7-28.6,22c-5.2,1.4-10.4,1.4-15.6,1.4c-5.4,0-10.8,0-16.2,0c-0.7,0-1.4,0-2.1,0
	c-5.5,0-11,0-16.5,0l-27.6,0v0l-18.3,0v-2l8.5-0.9c13-2.8,21.5-12.1,27.6-24.3c9.7-19.4,19-38.9,28.5-58.4
	c6.4-13.2,12.9-26.3,19.3-39.4c3.2-6.5,6.1-13.2,9.6-19.5c4.5-8.2,11-14.6,19.7-18.3c4.3-1.9,8.8-3.4,13-4.8c-4.2-1.5-8.7-3-13-4.8
	c-8.7-3.8-15.2-10.1-19.7-18.3c-3.5-6.3-6.4-13-9.6-19.5c-6.4-13.1-12.9-26.3-19.3-39.4c-9.5-19.5-18.8-39-28.5-58.4
	c-6.2-12.3-14.7-21.5-27.6-24.3l-8.5-0.9v-2l18.3,0v0l27.7,0c5.5,0,11,0,16.4,0c0.7,0,1.4,0,2.1,0c5.4,0,10.8,0,16.2,0
	c5.3,0,10.4,0.1,15.6,1.4c12.7,3.3,22.4,10.7,28.6,22c6.4,11.8,11.9,24.1,17.8,36.2c7.5,15.4,15,30.9,22.6,46.3
	c5.5,11.2,11.1,22.4,16.5,33.7c4,8.4,9.3,15.5,17.1,20.6C478.4,174.7,494.2,178.2,496.4,178.7C496.4,178.7,496.4,178.7,496.4,178.7
	C496.5,178.7,496.5,178.7,496.4,178.7z M141.8,155.5c3.5-6.3,6.4-13,9.6-19.5c6.4-13.1,12.9-26.3,19.3-39.4
	c9.5-19.5,18.8-39,28.5-58.4c6.2-12.3,14.7-21.5,27.6-24.3l8.5-0.9v-2L217,11v0l-27.7,0c-5.5,0-11,0-16.4,0c-0.7,0-1.4,0-2.1,0
	c-5.4,0-10.8,0-16.2,0c-5.3,0-10.4,0.1-15.6,1.4c-12.7,3.3-22.4,10.7-28.6,22c-6.4,11.8-11.9,24.1-17.8,36.2
	c-7.5,15.4-15,30.9-22.6,46.3c-5.5,11.2-11.1,22.4-16.5,33.7c-4,8.4-9.3,15.5-17.1,20.6c-5.3,3.4-21,7-23.2,7.5c0,0-0.1,0-0.1,0
	c0,0,0,0,0,0c0,0,0,0,0,0c0,0,0.1,0,0.1,0c1.8,0.4,13,2.9,19.8,5.7c7.7,4.2,14,10.1,18.1,18.1c0.2,0.4,0.7,1.1,1.3,1.8
	c0.4,0.8,0.8,1.6,1.2,2.4c5.4,11.3,11,22.5,16.5,33.7c7.5,15.4,15.1,30.9,22.6,46.3c5.9,12.1,11.4,24.4,17.8,36.2
	c6.2,11.4,15.9,18.7,28.6,22c5.2,1.4,10.4,1.4,15.6,1.4c5.4,0,10.8,0,16.2,0c0.7,0,1.4,0,2.1,0c5.5,0,11,0,16.5,0l27.6,0v0l18.3,0
	v-2l-8.5-0.9c-13-2.8-21.5-12.1-27.6-24.3c-9.7-19.4-19-38.9-28.5-58.4c-6.4-13.2-12.9-26.3-19.3-39.4c-3.2-6.5-6.1-13.2-9.6-19.5
	c-4.5-8.2-11-14.6-19.7-18.3c-4.3-1.9-8.8-3.4-13-4.8c4.2-1.5,8.7-3,13-4.8C130.8,170.1,137.3,163.7,141.8,155.5z"/>
<g>
	<polygon class="st7" points="626.7,108.2 658.6,73.9 663.2,69 668.7,63 639.8,63 612.1,92.8 612.1,92.8 590.1,114.8 590.1,95.5 
		590.1,57.4 590.1,14.8 564.8,14.8 564.8,181.8 590.1,181.8 590.1,147.3 605.2,131.1 642.2,181.8 671.8,181.8 621.2,114.1 	"/>
	<path class="st7" d="M750.9,60.8c-5.4,0-10.4,1.1-15,3.2c-4.5,2.1-8.6,4.9-12.1,8.4c-3,3-5.7,6.4-7.8,9.9V63h-5.6H692h-1.3v118.8
		h25.3V148v-28.3c0-5.9,0.9-11,2.7-15.5c1.8-4.4,4.3-8.1,7.4-11.1c3.1-3,6.8-5.2,10.8-6.7c4.1-1.5,8.4-2.2,12.9-2.2
		c1.7,0,3.7,0.1,5.8,0.3c2.2,0.2,4,0.5,5.5,1l2.4-23.6c-1.7-0.4-3.8-0.6-6.1-0.9C755.1,60.9,752.9,60.8,750.9,60.8z"/>
	<path class="st7" d="M846.4,96.9L846.4,96.9l-19.2,51.8l-32-85.7h-27.5l47.4,118.4l-2.7,7.3l0,0l-1.5,4c-1.5,4.1-3.4,7.9-5.7,11.1
		c-2.3,3.3-5.1,5.8-8.4,7.6c-3.3,1.8-7.2,2.7-11.7,2.7c-2.4,0-4.8-0.1-7.1-0.4c-2.3-0.3-4.2-0.6-5.7-1v20.2c1.9,0.4,4.1,0.8,6.8,1.2
		c2.6,0.4,5.8,0.6,9.3,0.6c7.4,0,14.1-1.4,19.9-4.2c5.8-2.8,10.8-7,15.1-12.5c4.3-5.5,7.9-12.1,10.8-19.8l51-135.1h-27.2L846.4,96.9
		z"/>
	<path class="st7" d="M964.2,60.8c-6.1,0-11.4,0.8-15.9,2.5c-4.5,1.7-8.4,4-11.6,6.8c-3.2,2.9-5.9,6-8.1,9.3V63h-4.7h-11.5h-9.2
		v171.5h25.3v-31.8v-16.6v-19c2.1,3,4.8,5.8,7.9,8.3c3.1,2.5,6.9,4.6,11.4,6.2c4.4,1.6,9.7,2.4,15.7,2.4c9.4,0,17.7-2.3,24.8-7
		c7.1-4.7,12.7-11.6,16.6-20.8c4-9.2,6-20.5,6-34c0-20.3-4.3-35.6-12.8-45.9C989.6,65.9,978.3,60.8,964.2,60.8z M982.1,143.8
		c-2,6.2-5,11-9.1,14.4c-4,3.4-9.1,5-15.3,5c-7.3,0-13.1-1.6-17.3-4.8c-4.3-3.2-7.3-7.8-9.1-14c-1.8-6.1-2.7-13.6-2.7-22.4v-3.5
		c0.1-8.3,1.2-15.2,3.1-20.7c1.9-5.5,4.9-9.6,9.1-12.4c4.2-2.8,9.7-4.1,16.7-4.1c9.4,0,16.3,3.5,20.9,10.6c4.5,7.1,6.8,17,6.8,29.8
		C985.1,130.3,984.1,137.6,982.1,143.8z"/>
	<path class="st7" d="M1072.8,86.4c4.6-3.1,10.4-4.6,17.3-4.6c4.2,0,8.6,0.6,13.2,1.8c4.6,1.2,9.1,2.7,13.4,4.5l7.5-20.2
		c-4-2-8.9-3.7-14.7-5.1c-5.8-1.4-12.2-2.1-19.3-2.1c-11.2,0-21.1,2.2-29.7,6.5c-8.6,4.4-15.4,11.1-20.2,20.3
		c-4.9,9.2-7.3,21-7.3,35.4c0,13.9,2.2,25.3,6.7,34.3c4.4,9,10.8,15.7,19,20.1c8.2,4.4,18,6.5,29.2,6.5c7.5,0,13.8-0.6,19-1.9
		c5.2-1.3,10-3.2,14.5-5.7v-21.9c-4.6,2.5-9.4,4.5-14.6,6.1c-5.2,1.6-11,2.4-17.5,2.4c-6.6,0-12.1-1.5-16.6-4.6
		c-4.5-3-7.9-7.5-10.2-13.5c-2.3-6-3.4-13.3-3.4-22.1c0-9,1.1-16.6,3.4-22.6C1064.7,94.1,1068.2,89.5,1072.8,86.4z"/>
	<path class="st7" d="M1227.7,67.9c-8.4-4.8-18-7.2-29-7.2c-11.7,0-21.7,2.4-30.2,7.2c-8.4,4.8-14.9,11.8-19.5,20.9
		c-4.5,9.1-6.8,20.2-6.8,33.3c0,9.9,1.4,18.6,4.1,26.3c2.7,7.7,6.6,14.1,11.5,19.4c5,5.3,10.9,9.3,17.7,12
		c6.8,2.8,14.3,4.1,22.4,4.1c8.7,0,16.6-1.4,23.5-4.1c6.9-2.8,12.9-6.8,17.8-12c4.9-5.3,8.7-11.7,11.3-19.4
		c2.6-7.7,3.9-16.4,3.9-26.3c0-13-2.4-24.1-7.1-33.3C1242.6,79.7,1236.1,72.7,1227.7,67.9z M1225.3,144.4
		c-2.1,6.2-5.3,10.9-9.8,14.1c-4.4,3.3-10.2,4.9-17.2,4.9c-7,0-12.7-1.6-17.2-4.9c-4.4-3.3-7.7-8-9.8-14.1
		c-2.1-6.2-3.2-13.6-3.2-22.2c0-13.1,2.4-23.1,7.2-30.2c4.8-7,12.4-10.5,22.9-10.5c7.1,0,12.8,1.6,17.3,4.8
		c4.4,3.2,7.7,7.8,9.8,13.8c2.1,6,3.1,13.4,3.1,22.1C1228.5,130.8,1227.4,138.2,1225.3,144.4z"/>
	<path class="st7" d="M1343.6,60.8c-5.4,0-10.4,1.1-15,3.2c-4.5,2.1-8.6,4.9-12.1,8.4c-3.1,3.1-5.7,6.5-7.9,10.1V63h-5.5h-18.6h-1.1
		v118.8h25.3v-62.1c0-5.9,0.9-11,2.7-15.5c1.8-4.4,4.3-8.1,7.4-11.1c3.1-3,6.8-5.2,10.8-6.7c4.1-1.5,8.4-2.2,12.9-2.2
		c1.7,0,3.7,0.1,5.8,0.3c2.2,0.2,4,0.5,5.5,1l2.4-23.6c-1.7-0.4-3.8-0.6-6.1-0.9C1347.8,60.9,1345.6,60.8,1343.6,60.8z"/>
	<path class="st7" d="M1476.5,114.6c0-11.2-2-20.7-6.1-28.8c-4.1-8-9.9-14.2-17.5-18.6c-7.6-4.4-16.7-6.5-27.3-6.5
		c-10.9,0-20.4,2.4-28.5,7.3c-8.2,4.9-14.5,12-19,21.3c-4.5,9.3-6.8,20.6-6.8,33.9c0,13.4,2.5,24.6,7.5,33.6
		c5,9,11.9,15.8,20.7,20.3c8.8,4.5,19.1,6.8,30.7,6.8c8.6,0,16-0.6,22.1-1.9c6.2-1.3,12.2-3.3,18.1-6.1v-20.5
		c-6.4,2.9-12.7,5-18.7,6.5c-6,1.5-12.9,2.2-20.4,2.2c-10.7,0-18.9-3.1-24.8-9.3c-5.9-6.2-9-15.1-9.3-26.6h79.3V114.6z
		 M1397.7,110.1c0.9-9.9,3.7-17.5,8.6-22.6c4.9-5.2,11.3-7.7,19.3-7.7c5.9,0,10.8,1.3,14.7,3.9c3.8,2.6,6.7,6.2,8.6,10.7
		c1.9,4.6,2.9,9.8,3,15.8H1397.7z"/>
</g>
</svg>
